<?xml version="1.0" encoding="UTF-8"?>
<svg width="167px" height="48px" viewBox="0 0 167 48" version="1.1" xmlns="http://www.w3.org/2000/svg" xmlns:xlink="http://www.w3.org/1999/xlink">
    <!-- Generator: Sketch 55.2 (78181) - https://sketchapp.com -->
    <title>Group 3</title>
    <desc>Created with Sketch.</desc>
    <g id="Mockup" stroke="none" stroke-width="1" fill="none" fill-rule="evenodd">
        <g id="Landing-page" transform="translate(-95.000000, -51.000000)">
            <g id="Group-3" transform="translate(95.000000, 51.000000)">
                <g id="Group-2">
                    <g id="LogoLoginPage">
                        <g id="connect" transform="translate(147.187597, 0.000000)">
                            <g id="Group">
                                <g id="Vector" transform="translate(6.320996, 1.956710)" fill="#99D5EA">
                                    <g id="path10_fill-link" transform="translate(0.046563, 0.017620)">
                                        <polygon id="path10_fill" points="11.3847113 6.78099963 4.7229135 -7.70317141e-07 3.03436038e-06 11.5884259"></polygon>
                                    </g>
                                </g>
                                <g id="Vector" transform="translate(3.737784, 8.714162)" fill="#16AFD3">
                                    <g id="path11_fill-link" transform="translate(0.002699, 0.040529)">
                                        <polygon id="path11_fill" points="14.0195955 0 2.63488429 4.80742633 -6.06870617e-06 11.2341888 6.86065283 11.2341888 15.9584653 1.9735733"></polygon>
                                    </g>
                                </g>
                                <g id="Vector" fill="#16AFD3">
                                    <g id="path12_fill-link" transform="translate(0.047982, 0.000000)">
                                        <polygon id="path12_fill" points="9.09782699 3.86081603e-07 -3.03436038e-06 9.26061544 -3.03436038e-06 16.1933611 6.31379777 13.5619992 11.0367112 1.9735733"></polygon>
                                    </g>
                                </g>
                                <g id="Vector" transform="translate(0.000000, 13.556308)" fill="#0094CE">
                                    <g id="path13_fill-link" transform="translate(0.047982, 0.005899)">
                                        <polygon id="path13_fill" points="3.67889889 6.42676244 6.31379777 0 -3.03436038e-06 2.63143601 -3.03436038e-06 6.42676244"></polygon>
                                    </g>
                                </g>
                            </g>
                        </g>
                        <g id="Group-3" transform="translate(0.000000, 19.939346)" fill-rule="nonzero">
                            <path d="M52.4948556,0 L55.6820432,0 L55.6820432,9.9991527 L55.7570359,9.9991527 C56.2819871,8.92558038 57.1068979,8.14537962 58.2317934,7.6585271 C59.3566888,7.1716745 60.5940551,6.92825187 61.9439296,6.92825187 C63.4437901,6.92825187 64.7498991,7.20288257 65.8622956,7.75215207 C66.9746921,8.30142163 67.8995922,9.0441728 68.6370237,9.98042769 C69.3744551,10.9166826 69.9306449,11.9964805 70.3056104,13.2198536 C70.6805753,14.4432267 70.868055,15.7414808 70.868055,17.1146546 C70.868055,18.4878285 70.6868243,19.7860826 70.3243583,21.0094557 C69.9618922,22.2328288 69.4119514,23.3001434 68.67452,24.2114316 C67.9370886,25.1227197 67.0121885,25.8405043 65.8997919,26.3648072 C64.7873953,26.8891099 63.493785,27.1512574 62.0189222,27.1512574 C61.5439664,27.1512574 61.0127738,27.1013245 60.4253284,27.0014573 C59.837883,26.9015901 59.2566958,26.7393084 58.6817493,26.5146072 C58.1068027,26.289906 57.5631114,25.9840673 57.0506591,25.5970819 C56.5382067,25.2100966 56.1070033,24.7294929 55.7570359,24.1552566 L55.6820432,24.1552566 L55.6820432,26.7393073 L52.4948556,26.7393073 L52.4948556,0 Z M67.4933857,16.8899546 C67.4933857,15.9911498 67.3746486,15.1110834 67.1371706,14.2497288 C66.8996927,13.3883743 66.5372319,12.6206568 66.0497772,11.9465533 C65.5623225,11.2724497 64.9373901,10.7356716 64.1749609,10.3362028 C63.4125318,9.93673405 62.5188783,9.73700264 61.4939736,9.73700264 C60.4190736,9.73700264 59.5066721,9.94921725 58.7567419,10.3736528 C58.0068117,10.7980883 57.3943778,11.3535913 56.919422,12.0401783 C56.4444662,12.7267652 56.1007533,13.506966 55.888273,14.3808039 C55.6757928,15.2546418 55.5695542,16.1409499 55.5695542,17.0397546 C55.5695542,17.9884929 55.6820421,18.906009 55.9070211,19.7923304 C56.1320003,20.6786517 56.4882118,21.4588525 56.9756664,22.132956 C57.4631211,22.8070595 58.094303,23.3500792 58.8692309,23.7620314 C59.6441588,24.1739836 60.5815576,24.3799566 61.6814553,24.3799566 C62.781353,24.3799566 63.7000038,24.167742 64.4374352,23.7433064 C65.1748666,23.3188709 65.7685525,22.7571263 66.2185107,22.058056 C66.6684688,21.3589856 66.9934337,20.56006 67.1934151,19.6612553 C67.3933965,18.7624506 67.4933857,17.8386929 67.4933857,16.8899546 Z M77.3174233,17.0772047 C77.3174233,18.2506442 77.4736563,19.2929923 77.7861273,20.2042805 C78.0985983,21.1155686 78.5298017,21.8770445 79.0797503,22.4887311 C79.6296995,23.1004177 80.2733795,23.5685381 81.0108111,23.8931065 C81.7482428,24.2176749 82.529408,24.3799566 83.3543311,24.3799566 C84.179255,24.3799566 84.9604202,24.2176749 85.6978518,23.8931065 C86.4352835,23.5685381 87.0789635,23.1004177 87.6289127,22.4887311 C88.1788612,21.8770445 88.6100647,21.1155686 88.9225357,20.2042805 C89.2350066,19.2929923 89.3912397,18.2506442 89.3912397,17.0772047 C89.3912397,15.9037651 89.2350066,14.8614169 88.9225357,13.9501288 C88.6100647,13.0388406 88.1788612,12.2711231 87.6289127,11.6469532 C87.0789635,11.0227832 86.4352835,10.5484211 85.6978518,10.2238528 C84.9604202,9.89928438 84.179255,9.73700264 83.3543311,9.73700264 C82.529408,9.73700264 81.7482428,9.89928438 81.0108111,10.2238528 C80.2733795,10.5484211 79.6296995,11.0227832 79.0797503,11.6469532 C78.5298017,12.2711231 78.0985983,13.0388406 77.7861273,13.9501288 C77.4736563,14.8614169 77.3174233,15.9037651 77.3174233,17.0772047 Z M73.9427534,17.0772047 C73.9427534,15.6540971 74.1427318,14.3246351 74.542695,13.0887786 C74.9426574,11.852922 75.5425927,10.7793658 76.3425183,9.8680777 C77.1424438,8.95678957 78.1298372,8.23900487 79.3047283,7.71470212 C80.4796188,7.1903993 81.8294734,6.92825187 83.3543311,6.92825187 C84.9041871,6.92825187 86.2602908,7.1903993 87.4226824,7.71470212 C88.5850748,8.23900487 89.5662184,8.95678957 90.366144,9.8680777 C91.1660696,10.7793658 91.7660049,11.852922 92.165968,13.0887786 C92.5659304,14.3246351 92.7659089,15.6540971 92.7659089,17.0772047 C92.7659089,18.5003121 92.5659304,19.8235326 92.165968,21.0469057 C91.7660049,22.2702788 91.1660696,23.3375935 90.366144,24.2488816 C89.5662184,25.1601697 88.5850748,25.8717128 87.4226824,26.3835322 C86.2602908,26.8953515 84.9041871,27.1512574 83.3543311,27.1512574 C81.8294734,27.1512574 80.4796188,26.8953515 79.3047283,26.3835322 C78.1298372,25.8717128 77.1424438,25.1601697 76.3425183,24.2488816 C75.5425927,23.3375935 74.9426574,22.2702788 74.542695,21.0469057 C74.1427318,19.8235326 73.9427534,18.5003121 73.9427534,17.0772047 Z M101.315071,7.37765197 L105.177193,7.37765197 L105.177193,10.1864028 L101.315071,10.1864028 L101.315071,22.207856 C101.315071,22.582358 101.346318,22.8819551 101.408812,23.1066563 C101.471306,23.3313574 101.590043,23.5061224 101.765027,23.6309564 C101.940011,23.7557904 102.183734,23.8369313 102.496205,23.8743815 C102.808676,23.9118317 103.214883,23.9305565 103.714836,23.9305565 L105.177193,23.9305565 L105.177193,26.7393073 L102.739932,26.7393073 C101.915008,26.7393073 101.208835,26.6831328 100.621389,26.5707822 C100.033944,26.4584316 99.5589955,26.2524586 99.1965287,25.952857 C98.8340626,25.6532554 98.5653419,25.2288262 98.3903576,24.6795567 C98.2153739,24.1302871 98.1278838,23.4062609 98.1278838,22.5074561 L98.1278838,10.1864028 L94.8282066,10.1864028 L94.8282066,7.37765197 L98.1278838,7.37765197 L98.1278838,1.57290042 L101.315071,1.57290042 L101.315071,7.37765197 Z M109.789241,22.5823561 L113.951333,22.5823561 L113.951333,26.7393073 L109.789241,26.7393073 L109.789241,22.5823561 Z M137.049069,26.6644072 C136.499121,26.9889756 135.736703,27.1512574 134.761793,27.1512574 C133.93687,27.1512574 133.280691,26.9203179 132.793236,26.4584321 C132.305782,25.9965464 132.062058,25.2413121 132.062058,24.1927066 C131.187139,25.2413121 130.168499,25.9965464 129.006108,26.4584321 C127.843715,26.9203179 126.587601,27.1512574 125.237727,27.1512574 C124.362808,27.1512574 123.531648,27.0513917 122.744221,26.8516573 C121.956794,26.6519229 121.275618,26.3398426 120.700671,25.915407 C120.125725,25.4909715 119.669524,24.9354685 119.332056,24.2488816 C118.994587,23.5622946 118.825855,22.732161 118.825855,21.7584559 C118.825855,20.6599168 119.013335,19.7611255 119.3883,19.0620552 C119.763265,18.3629848 120.256962,17.7949987 120.869405,17.3580797 C121.481848,16.9211608 122.181773,16.5903556 122.969199,16.3656545 C123.756626,16.1409533 124.562789,15.953705 125.387712,15.8039043 C126.262631,15.6291367 127.093791,15.498063 127.881218,15.4106792 C128.668645,15.3232954 129.36232,15.1984632 129.962264,15.0361791 C130.562208,14.8738949 131.037157,14.6367139 131.387124,14.3246289 C131.737091,14.0125439 131.912073,13.5569066 131.912073,12.9577035 C131.912073,12.2586332 131.780837,11.6968886 131.518361,11.2724531 C131.255886,10.8480175 130.918422,10.523454 130.50596,10.2987528 C130.093499,10.0740516 129.631049,9.92425308 129.118597,9.8493527 C128.606144,9.77445224 128.099949,9.73700264 127.599995,9.73700264 C126.250121,9.73700264 125.125242,9.99290845 124.225326,10.5047279 C123.32541,11.0165472 122.837962,11.9839961 122.762969,13.4071037 L119.575782,13.4071037 C119.625777,12.2086973 119.87575,11.1975571 120.325709,10.3736528 C120.775666,9.54974845 121.375601,8.88189663 122.125532,8.37007729 C122.875462,7.85825788 123.731619,7.49000313 124.69403,7.26530198 C125.65644,7.04060077 126.687579,6.92825187 127.787477,6.92825187 C128.662396,6.92825187 129.531052,6.99066797 130.393471,7.11550191 C131.255891,7.24033593 132.037057,7.49624174 132.736992,7.88322713 C133.436927,8.27021252 133.999366,8.81323221 134.424326,9.51230261 C134.849287,10.2113729 135.061764,11.1226474 135.061764,12.2461533 L135.061764,22.207856 C135.061764,22.95686 135.10551,23.5061213 135.193001,23.8556565 C135.280493,24.2051917 135.574211,24.3799566 136.074165,24.3799566 C136.349139,24.3799566 136.674104,24.3175405 137.049069,24.1927066 L137.049069,26.6644072 Z M131.874577,16.7401545 C131.474614,17.0397561 130.94967,17.2582123 130.299731,17.3955297 C129.649791,17.5328471 128.968615,17.645196 128.256181,17.7325798 C127.543747,17.8199636 126.825075,17.9198293 126.100143,18.0321799 C125.37521,18.1445305 124.72528,18.325537 124.150333,18.575205 C123.575387,18.824873 123.106687,19.1806445 122.744221,19.6425303 C122.381755,20.1044161 122.200525,20.7348183 122.200525,21.5337558 C122.200525,22.0580586 122.306763,22.5012126 122.519243,22.8632312 C122.731724,23.2252497 123.006694,23.5186052 123.344162,23.7433064 C123.681631,23.9680077 124.075338,24.1302894 124.525297,24.2301566 C124.975255,24.3300238 125.450204,24.3799566 125.950157,24.3799566 C127.000059,24.3799566 127.899962,24.2363997 128.649892,23.9492815 C129.399823,23.6621633 130.012257,23.3001502 130.487213,22.8632312 C130.962168,22.4263122 131.312131,21.9519502 131.53711,21.4401308 C131.762088,20.9283114 131.874577,20.4477078 131.874577,19.9983054 L131.874577,16.7401545 Z M143.760911,3.89480106 L140.573724,3.89480106 L140.573724,0 L143.760911,0 L143.760911,3.89480106 Z M140.573724,7.37765197 L143.760911,7.37765197 L143.760911,26.7393073 L140.573724,26.7393073 L140.573724,7.37765197 Z" id="bot.ai" fill="#9DB1B9"></path>
                            <path d="M0,0 L4.68704067,0 L4.68704067,26.7393073 L0,26.7393073 L0,0 Z M9.89902991,0 L16.4983832,0 L23.8851592,20.9345557 L23.9601519,20.9345557 L31.1594464,0 L37.683807,0 L37.683807,26.7393073 L33.2217443,26.7393073 L33.2217443,6.10435165 L33.1467517,6.10435165 L25.7224792,26.7393073 L21.8603577,26.7393073 L14.4360853,6.10435165 L14.3610926,6.10435165 L14.3610926,26.7393073 L9.89902991,26.7393073 L9.89902991,0 Z M42.8582999,0 L47.5453406,0 L47.5453406,26.7393073 L42.8582999,26.7393073 L42.8582999,0 Z" id="IMI" fill="#16AFD3"></path>
                        </g>
                    </g>
                </g>
            </g>
        </g>
    </g>
</svg>